<svg width="24" height="24" viewBox="0 0 24 24" fill="none" xmlns="http://www.w3.org/2000/svg">
<mask id="mask0" mask-type="alpha" maskUnits="userSpaceOnUse" x="0" y="0" width="24" height="24">
<rect width="24" height="24" fill="#C4C4C4"/>
</mask>
<g mask="url(#mask0)">
<path d="M18.3636 5.63636C16.6629 3.93561 14.4053 3 12 3C9.5947 3 7.33712 3.93561 5.63636 5.63636C3.93561 7.33712 3 9.5947 3 12C3 14.4053 3.93561 16.6629 5.63636 18.3636C7.33712 20.0644 9.5947 21 12 21C14.4053 21 16.6629 20.0644 18.3636 18.3636C20.0644 16.6629 21 14.4053 21 12C21 9.5947 20.0644 7.33712 18.3636 5.63636ZM17.6402 17.6402C16.1326 19.1477 14.1288 19.9773 12 19.9773C9.87121 19.9773 7.86742 19.1477 6.35985 17.6402C3.25 14.5303 3.25 9.4697 6.35985 6.35985C7.86742 4.85227 9.87121 4.02273 12 4.02273C14.1288 4.02273 16.1326 4.85227 17.6402 6.35985C20.75 9.4697 20.75 14.5303 17.6402 17.6402Z" fill="#D1D1D6"/>
<path d="M15.9652 8.03387C15.7644 7.83311 15.4425 7.83311 15.2417 8.03387L11.9993 11.2763L8.75687 8.03387C8.55611 7.83311 8.23414 7.83311 8.03338 8.03387C7.83262 8.23463 7.83262 8.5566 8.03338 8.75735L11.2758 11.9998L8.03338 15.2422C7.83262 15.443 7.83262 15.7649 8.03338 15.9657C8.13187 16.0642 8.26444 16.1172 8.39323 16.1172C8.52202 16.1172 8.65459 16.068 8.75308 15.9657L11.9955 12.7233L15.2379 15.9657C15.3364 16.0642 15.469 16.1172 15.5978 16.1172C15.7304 16.1172 15.8591 16.068 15.9576 15.9657C16.1584 15.7649 16.1584 15.443 15.9576 15.2422L12.7228 11.9998L15.9652 8.75735C16.166 8.5566 16.166 8.23463 15.9652 8.03387Z" fill="#D1D1D6"/>
</g>
</svg>
