<svg width="24" height="24" viewBox="0 0 24 24" fill="none" xmlns="http://www.w3.org/2000/svg">
<path d="M15.5 7.8H19V9.2H17.6V18.3C17.6 18.4857 17.5263 18.6637 17.395 18.795C17.2637 18.9263 17.0857 19 16.9 19H7.1C6.91435 19 6.7363 18.9263 6.60503 18.795C6.47375 18.6637 6.4 18.4857 6.4 18.3V9.2H5V7.8H8.5V5.7C8.5 5.51435 8.57375 5.3363 8.70503 5.20503C8.8363 5.07375 9.01435 5 9.2 5H14.8C14.9857 5 15.1637 5.07375 15.295 5.20503C15.4263 5.3363 15.5 5.51435 15.5 5.7V7.8ZM16.2 9.2H7.8V17.6H16.2V9.2ZM9.9 11.3H11.3V15.5H9.9V11.3ZM12.7 11.3H14.1V15.5H12.7V11.3ZM9.9 6.4V7.8H14.1V6.4H9.9Z" fill="#777777"/>
</svg>
