<svg width="30" height="30" viewBox="0 0 30 30" fill="none" xmlns="http://www.w3.org/2000/svg">
<mask id="mask0" mask-type="alpha" maskUnits="userSpaceOnUse" x="0" y="0" width="30" height="30">
<rect width="30" height="30" fill="#C4C4C4"/>
</mask>
<g mask="url(#mask0)">
<path d="M13.7411 25.4844C13.7411 25.2814 13.6604 25.0867 13.5168 24.9431C13.3733 24.7995 13.1785 24.7189 12.9755 24.7189H7.78113V5.28113H12.9755C13.1785 5.28113 13.3733 5.20048 13.5168 5.0569C13.6604 4.91333 13.7411 4.71861 13.7411 4.51557C13.7411 4.31253 13.6604 4.1178 13.5168 3.97423C13.3733 3.83066 13.1785 3.75 12.9755 3.75H6.25V26.25H12.9755C13.1785 26.25 13.3733 26.1693 13.5168 26.0258C13.6604 25.8822 13.7411 25.6875 13.7411 25.4844Z" fill="#333333"/>
<path d="M23.2642 15.4747L23.3063 15.4172C23.3202 15.3949 23.333 15.372 23.3446 15.3483C23.3446 15.3292 23.3675 15.3101 23.3752 15.2871C23.3857 15.2596 23.3947 15.2314 23.402 15.2029C23.402 15.2029 23.402 15.1646 23.402 15.1455C23.4064 15.0984 23.4064 15.0509 23.402 15.0038C23.4064 14.9567 23.4064 14.9093 23.402 14.8622C23.402 14.8431 23.402 14.8239 23.402 14.8048C23.3947 14.7762 23.3857 14.7481 23.3752 14.7206C23.3752 14.7014 23.356 14.6823 23.3446 14.6593C23.333 14.6357 23.3202 14.6127 23.3063 14.5904L23.2642 14.5292L23.2259 14.4794L18.3492 9.21233C18.2819 9.1349 18.1997 9.07181 18.1074 9.0268C18.0152 8.98179 17.9149 8.95577 17.8124 8.95031C17.71 8.94484 17.6074 8.96003 17.5109 8.99497C17.4145 9.02991 17.326 9.0839 17.2508 9.15371C17.1756 9.22353 17.1152 9.30775 17.0732 9.40138C17.0311 9.495 17.0084 9.59612 17.0062 9.69871C17.0041 9.80131 17.0226 9.90329 17.0606 9.99859C17.0987 10.0939 17.1555 10.1806 17.2277 10.2535L20.9177 14.2344H12.2324C12.0293 14.2344 11.8346 14.3151 11.691 14.4587C11.5475 14.6022 11.4668 14.797 11.4668 15C11.4668 15.2031 11.5475 15.3978 11.691 15.5413C11.8346 15.6849 12.0293 15.7656 12.2324 15.7656H20.9177L17.2277 19.7465C17.0972 19.8965 17.0302 20.0913 17.0408 20.2898C17.0514 20.4882 17.1388 20.6748 17.2844 20.8101C17.4301 20.9453 17.6226 21.0186 17.8214 21.0144C18.0201 21.0102 18.2094 20.9289 18.3492 20.7877L23.2336 15.5206L23.2642 15.4747Z" fill="#333333"/>
</g>
</svg>
